<svg xmlns="http://www.w3.org/2000/svg" width="32" height="32" viewBox="0 0 24 24" fill="none">
  <!-- Background with 3D effect -->
  <defs>
    <linearGradient id="paint0_linear" x1="2" y1="2" x2="22" y2="22" gradientUnits="userSpaceOnUse">
      <stop offset="0%" stopColor="#9333EA" />
      <stop offset="100%" stopColor="#EC4899" />
    </linearGradient>
    <filter id="shadow" x="-20%" y="-20%" width="140%" height="140%">
      <feDropShadow dx="0" dy="0.5" stdDeviation="0.5" floodColor="#000" floodOpacity="0.3"/>
    </filter>
    <radialGradient id="shine" cx="30%" cy="30%" r="70%" fx="30%" fy="30%">
      <stop offset="0%" stopColor="white" stopOpacity="0.5" />
      <stop offset="100%" stopColor="white" stopOpacity="0" />
    </radialGradient>
  </defs>
  
  <!-- Base circle with gradient and 3D effect -->
  <circle cx="12" cy="12" r="11" fill="url(#paint0_linear)" filter="url(#shadow)" />
  <circle cx="12" cy="12" r="11" fill="url(#shine)" opacity="0.6" />
  
  <!-- Code brackets with depth effect -->
  <path d="M7.5 6H6.5a1.5 1.5 0 0 0-1.5 1.5v9a1.5 1.5 0 0 0 1.5 1.5h1" 
    stroke="white" strokeWidth="1.5" strokeLinecap="round" strokeLinejoin="round"
    filter="url(#shadow)" />
  <path d="M16.5 6h1a1.5 1.5 0 0 1 1.5 1.5v9a1.5 1.5 0 0 1-1.5 1.5h-1" 
    stroke="white" strokeWidth="1.5" strokeLinecap="round" strokeLinejoin="round"
    filter="url(#shadow)" />
  
  <!-- Code symbols with glow effect -->
  <path d="M12 11l1.5-1v4L12 13" 
    stroke="white" strokeWidth="1.5" strokeLinecap="round" strokeLinejoin="round" 
    filter="url(#shadow)" />
  <path d="M10.5 10l-1.5 1.5 1.5 1.5" 
    stroke="white" strokeWidth="1.5" strokeLinecap="round" strokeLinejoin="round"
    filter="url(#shadow)" />
  
  <!-- Heart with special effects -->
  <path d="M12 7a2 2 0 1 0 2.5 2.5 2 2 0 1 0 2.5-2.5 2.5 2.5 0 0 0-2.5-1 2.5 2.5 0 0 0-2.5 1z" 
    fill="#FF3E88" stroke="white" strokeWidth="1" strokeLinecap="round" strokeLinejoin="round" 
    filter="url(#shadow)" />
    
  <!-- Sparkle effects -->
  <circle cx="16" cy="5" r="0.5" fill="white" />
  <circle cx="18" cy="7" r="0.3" fill="white" />
  <circle cx="6" cy="6" r="0.4" fill="white" />
  <circle cx="8" cy="18" r="0.3" fill="white" />
  <circle cx="19" cy="16" r="0.4" fill="white" />
</svg> 